<svg width="620" height="132" viewBox="0 0 620 132" fill="none" xmlns="http://www.w3.org/2000/svg">
<mask id="path-1-outside-1_58_6" maskUnits="userSpaceOnUse" x="159" y="30.0547" width="441" height="69" fill="black">
<rect fill="white" x="159" y="30.0547" width="441" height="69"/>
<path d="M160.371 34.1107H206.562V37.4037H163.664V63.3917H198.374V66.6847H163.664V96.0547H160.371V34.1107ZM266.925 34.1107V37.4037H248.413V92.7617H266.925V96.0547H226.786V92.7617H245.209V37.4037H226.786V34.1107H266.925ZM312.247 36.0687C308.271 36.0687 304.563 37.0774 301.122 39.0947C297.74 41.0527 295.04 43.7524 293.023 47.1937C291.005 50.5757 289.997 54.284 289.997 58.3187V70.0667C289.997 74.2794 290.59 77.7504 291.777 80.4797C293.438 84.3364 295.96 87.481 299.342 89.9137C302.724 92.3464 306.521 93.711 310.734 94.0077V65.0827H337.879V70.9567C337.879 74.754 337.315 78.136 336.188 81.1027C334.348 86.0274 331.263 89.973 326.932 92.9397C322.6 95.9064 317.705 97.3897 312.247 97.3897C307.085 97.3897 302.368 95.9954 298.096 93.2067C293.883 90.3587 290.798 86.591 288.84 81.9037C287.416 78.581 286.704 74.6354 286.704 70.0667V58.3187C286.704 53.6907 287.831 49.4187 290.086 45.5027C292.4 41.5867 295.515 38.5014 299.431 36.2467C303.347 33.9327 307.619 32.7757 312.247 32.7757C316.103 32.7757 319.634 33.4284 322.838 34.7337C326.042 35.9797 328.771 37.819 331.026 40.2517C332.865 42.269 334.348 44.5237 335.476 47.0157C336.662 49.5077 337.256 52.0294 337.256 54.5807H334.052C333.992 52.3854 333.429 50.2197 332.361 48.0837C331.352 45.9477 330.047 44.0194 328.445 42.2987C324.469 38.1454 319.07 36.0687 312.247 36.0687ZM334.586 68.2867H313.938V94.0077C318.21 93.711 322.037 92.376 325.419 90.0027C328.86 87.57 331.382 84.366 332.984 80.3907C334.052 77.602 334.586 74.4574 334.586 70.9567V68.2867ZM407.765 96.0547H349.381L378.573 32.7757L407.765 96.0547ZM354.543 92.7617H402.603L378.573 40.6077L354.543 92.7617ZM470.085 96.0547H422.47V34.1107H446.589C451.751 34.1107 455.964 35.0304 459.227 36.8697C462.431 38.6497 464.923 41.0824 466.703 44.1677C468.483 47.253 469.373 50.6647 469.373 54.4027C469.373 59.0307 467.949 63.184 465.101 66.8627C462.253 70.482 458.664 72.885 454.332 74.0717L470.085 96.0547ZM428.077 37.4037L452.285 71.2237C456.261 70.393 459.554 68.4054 462.164 65.2607C464.775 62.116 466.08 58.4967 466.08 54.4027C466.08 51.1394 465.279 48.1727 463.677 45.5027C462.075 42.8327 459.821 40.7857 456.913 39.3617C454.303 38.0564 450.891 37.4037 446.678 37.4037H428.077ZM425.763 39.5397V71.4907H448.636L425.763 39.5397ZM425.763 92.7617H463.855L450.861 74.6947L448.102 74.7837H425.763V92.7617ZM535.343 34.1107V37.4037H511.936V96.0547H508.732V37.4037H485.325V34.1107H535.343ZM554.855 34.1107H598.465V37.4037H558.148V62.5017H593.214V65.7947H558.148V92.7617H598.465V96.0547H554.855V34.1107Z"/>
</mask>
<path d="M160.371 34.1107H206.562V37.4037H163.664V63.3917H198.374V66.6847H163.664V96.0547H160.371V34.1107ZM266.925 34.1107V37.4037H248.413V92.7617H266.925V96.0547H226.786V92.7617H245.209V37.4037H226.786V34.1107H266.925ZM312.247 36.0687C308.271 36.0687 304.563 37.0774 301.122 39.0947C297.74 41.0527 295.04 43.7524 293.023 47.1937C291.005 50.5757 289.997 54.284 289.997 58.3187V70.0667C289.997 74.2794 290.59 77.7504 291.777 80.4797C293.438 84.3364 295.96 87.481 299.342 89.9137C302.724 92.3464 306.521 93.711 310.734 94.0077V65.0827H337.879V70.9567C337.879 74.754 337.315 78.136 336.188 81.1027C334.348 86.0274 331.263 89.973 326.932 92.9397C322.6 95.9064 317.705 97.3897 312.247 97.3897C307.085 97.3897 302.368 95.9954 298.096 93.2067C293.883 90.3587 290.798 86.591 288.84 81.9037C287.416 78.581 286.704 74.6354 286.704 70.0667V58.3187C286.704 53.6907 287.831 49.4187 290.086 45.5027C292.4 41.5867 295.515 38.5014 299.431 36.2467C303.347 33.9327 307.619 32.7757 312.247 32.7757C316.103 32.7757 319.634 33.4284 322.838 34.7337C326.042 35.9797 328.771 37.819 331.026 40.2517C332.865 42.269 334.348 44.5237 335.476 47.0157C336.662 49.5077 337.256 52.0294 337.256 54.5807H334.052C333.992 52.3854 333.429 50.2197 332.361 48.0837C331.352 45.9477 330.047 44.0194 328.445 42.2987C324.469 38.1454 319.07 36.0687 312.247 36.0687ZM334.586 68.2867H313.938V94.0077C318.21 93.711 322.037 92.376 325.419 90.0027C328.86 87.57 331.382 84.366 332.984 80.3907C334.052 77.602 334.586 74.4574 334.586 70.9567V68.2867ZM407.765 96.0547H349.381L378.573 32.7757L407.765 96.0547ZM354.543 92.7617H402.603L378.573 40.6077L354.543 92.7617ZM470.085 96.0547H422.47V34.1107H446.589C451.751 34.1107 455.964 35.0304 459.227 36.8697C462.431 38.6497 464.923 41.0824 466.703 44.1677C468.483 47.253 469.373 50.6647 469.373 54.4027C469.373 59.0307 467.949 63.184 465.101 66.8627C462.253 70.482 458.664 72.885 454.332 74.0717L470.085 96.0547ZM428.077 37.4037L452.285 71.2237C456.261 70.393 459.554 68.4054 462.164 65.2607C464.775 62.116 466.08 58.4967 466.08 54.4027C466.08 51.1394 465.279 48.1727 463.677 45.5027C462.075 42.8327 459.821 40.7857 456.913 39.3617C454.303 38.0564 450.891 37.4037 446.678 37.4037H428.077ZM425.763 39.5397V71.4907H448.636L425.763 39.5397ZM425.763 92.7617H463.855L450.861 74.6947L448.102 74.7837H425.763V92.7617ZM535.343 34.1107V37.4037H511.936V96.0547H508.732V37.4037H485.325V34.1107H535.343ZM554.855 34.1107H598.465V37.4037H558.148V62.5017H593.214V65.7947H558.148V92.7617H598.465V96.0547H554.855V34.1107Z" fill="white"/>
<path d="M160.371 34.1107V33.1107H159.371V34.1107H160.371ZM206.562 34.1107H207.562V33.1107H206.562V34.1107ZM206.562 37.4037V38.4037H207.562V37.4037H206.562ZM163.664 37.4037V36.4037H162.664V37.4037H163.664ZM163.664 63.3917H162.664V64.3917H163.664V63.3917ZM198.374 63.3917H199.374V62.3917H198.374V63.3917ZM198.374 66.6847V67.6847H199.374V66.6847H198.374ZM163.664 66.6847V65.6847H162.664V66.6847H163.664ZM163.664 96.0547V97.0547H164.664V96.0547H163.664ZM160.371 96.0547H159.371V97.0547H160.371V96.0547ZM160.371 35.1107H206.562V33.1107H160.371V35.1107ZM205.562 34.1107V37.4037H207.562V34.1107H205.562ZM206.562 36.4037H163.664V38.4037H206.562V36.4037ZM162.664 37.4037V63.3917H164.664V37.4037H162.664ZM163.664 64.3917H198.374V62.3917H163.664V64.3917ZM197.374 63.3917V66.6847H199.374V63.3917H197.374ZM198.374 65.6847H163.664V67.6847H198.374V65.6847ZM162.664 66.6847V96.0547H164.664V66.6847H162.664ZM163.664 95.0547H160.371V97.0547H163.664V95.0547ZM161.371 96.0547V34.1107H159.371V96.0547H161.371ZM266.925 34.1107H267.925V33.1107H266.925V34.1107ZM266.925 37.4037V38.4037H267.925V37.4037H266.925ZM248.413 37.4037V36.4037H247.413V37.4037H248.413ZM248.413 92.7617H247.413V93.7617H248.413V92.7617ZM266.925 92.7617H267.925V91.7617H266.925V92.7617ZM266.925 96.0547V97.0547H267.925V96.0547H266.925ZM226.786 96.0547H225.786V97.0547H226.786V96.0547ZM226.786 92.7617V91.7617H225.786V92.7617H226.786ZM245.209 92.7617V93.7617H246.209V92.7617H245.209ZM245.209 37.4037H246.209V36.4037H245.209V37.4037ZM226.786 37.4037H225.786V38.4037H226.786V37.4037ZM226.786 34.1107V33.1107H225.786V34.1107H226.786ZM265.925 34.1107V37.4037H267.925V34.1107H265.925ZM266.925 36.4037H248.413V38.4037H266.925V36.4037ZM247.413 37.4037V92.7617H249.413V37.4037H247.413ZM248.413 93.7617H266.925V91.7617H248.413V93.7617ZM265.925 92.7617V96.0547H267.925V92.7617H265.925ZM266.925 95.0547H226.786V97.0547H266.925V95.0547ZM227.786 96.0547V92.7617H225.786V96.0547H227.786ZM226.786 93.7617H245.209V91.7617H226.786V93.7617ZM246.209 92.7617V37.4037H244.209V92.7617H246.209ZM245.209 36.4037H226.786V38.4037H245.209V36.4037ZM227.786 37.4037V34.1107H225.786V37.4037H227.786ZM226.786 35.1107H266.925V33.1107H226.786V35.1107ZM301.122 39.0947L301.623 39.9601L301.627 39.9574L301.122 39.0947ZM293.023 47.1937L293.882 47.706L293.885 47.6994L293.023 47.1937ZM291.777 80.4797L292.695 80.0841L292.694 80.081L291.777 80.4797ZM299.342 89.9137L299.926 89.1019L299.342 89.9137ZM310.734 94.0077L310.663 95.0052L311.734 95.0806V94.0077H310.734ZM310.734 65.0827V64.0827H309.734V65.0827H310.734ZM337.879 65.0827H338.879V64.0827H337.879V65.0827ZM336.188 81.1027L335.253 80.7475L335.251 80.7528L336.188 81.1027ZM326.932 92.9397L326.367 92.1147L326.932 92.9397ZM298.096 93.2067L297.536 94.0351L297.542 94.0396L297.549 94.0441L298.096 93.2067ZM288.84 81.9037L289.762 81.5182L289.759 81.5098L288.84 81.9037ZM290.086 45.5027L289.225 44.9939L289.219 45.0037L290.086 45.5027ZM299.431 36.2467L299.93 37.1134L299.939 37.1076L299.431 36.2467ZM322.838 34.7337L322.46 35.6598L322.468 35.6628L322.475 35.6657L322.838 34.7337ZM331.026 40.2517L331.765 39.5779L331.759 39.5719L331.026 40.2517ZM335.476 47.0157L334.565 47.4279L334.569 47.4368L334.573 47.4456L335.476 47.0157ZM337.256 54.5807V55.5807H338.256V54.5807H337.256ZM334.052 54.5807L333.052 54.6077L333.078 55.5807H334.052V54.5807ZM332.361 48.0837L331.456 48.5107L331.461 48.5209L331.466 48.5309L332.361 48.0837ZM328.445 42.2987L329.177 41.6172L329.167 41.6072L328.445 42.2987ZM334.586 68.2867H335.586V67.2867H334.586V68.2867ZM313.938 68.2867V67.2867H312.938V68.2867H313.938ZM313.938 94.0077H312.938V95.0795L314.007 95.0053L313.938 94.0077ZM325.419 90.0027L325.993 90.8213L325.996 90.8193L325.419 90.0027ZM332.984 80.3907L333.911 80.7645L333.914 80.7564L333.918 80.7483L332.984 80.3907ZM312.247 35.0687C308.093 35.0687 304.21 36.1251 300.616 38.232L301.627 39.9574C304.916 38.0296 308.45 37.0687 312.247 37.0687V35.0687ZM300.621 38.2293C297.086 40.2757 294.263 43.1007 292.16 46.688L293.885 47.6994C295.817 44.404 298.394 41.8296 301.623 39.9601L300.621 38.2293ZM292.164 46.6814C290.052 50.2223 288.997 54.1083 288.997 58.3187H290.997C290.997 54.4597 291.959 50.9291 293.882 47.706L292.164 46.6814ZM288.997 58.3187V70.0667H290.997V58.3187H288.997ZM288.997 70.0667C288.997 74.3637 289.601 77.9825 290.86 80.8784L292.694 80.081C291.58 77.5183 290.997 74.195 290.997 70.0667H288.997ZM290.858 80.8753C292.591 84.8971 295.227 88.1861 298.758 90.7255L299.926 89.1019C296.692 86.7759 294.285 83.7757 292.695 80.0841L290.858 80.8753ZM298.758 90.7255C302.293 93.2681 306.268 94.6957 310.663 95.0052L310.804 93.0102C306.774 92.7263 303.155 91.4246 299.926 89.1019L298.758 90.7255ZM311.734 94.0077V65.0827H309.734V94.0077H311.734ZM310.734 66.0827H337.879V64.0827H310.734V66.0827ZM336.879 65.0827V70.9567H338.879V65.0827H336.879ZM336.879 70.9567C336.879 74.6559 336.33 77.9142 335.253 80.7475L337.122 81.4579C338.301 78.3579 338.879 74.8521 338.879 70.9567H336.879ZM335.251 80.7528C333.484 85.4849 330.528 89.2645 326.367 92.1147L327.497 93.7647C331.998 90.6815 335.213 86.5698 337.125 81.4526L335.251 80.7528ZM326.367 92.1147C322.209 94.9626 317.512 96.3897 312.247 96.3897V98.3897C317.899 98.3897 322.992 96.8501 327.497 93.7647L326.367 92.1147ZM312.247 96.3897C307.276 96.3897 302.75 95.0505 298.642 92.3693L297.549 94.0441C301.986 96.9402 306.893 98.3897 312.247 98.3897V96.3897ZM298.656 92.3782C294.604 89.6393 291.645 86.0255 289.762 81.5182L287.917 82.2891C289.95 87.1565 293.162 91.0781 297.536 94.0351L298.656 92.3782ZM289.759 81.5098C288.4 78.3398 287.704 74.5344 287.704 70.0667H285.704C285.704 74.7363 286.431 78.8223 287.921 82.2976L289.759 81.5098ZM287.704 70.0667V58.3187H285.704V70.0667H287.704ZM287.704 58.3187C287.704 53.8614 288.787 49.7621 290.952 46.0016L289.219 45.0037C286.875 49.0753 285.704 53.52 285.704 58.3187H287.704ZM290.947 46.0114C293.173 42.2429 296.164 39.2813 299.93 37.1133L298.932 35.3801C294.865 37.7214 291.626 40.9305 289.225 44.994L290.947 46.0114ZM299.939 37.1076C303.699 34.8863 307.794 33.7757 312.247 33.7757V31.7757C307.443 31.7757 302.995 32.9791 298.922 35.3858L299.939 37.1076ZM312.247 33.7757C315.989 33.7757 319.389 34.4086 322.46 35.6598L323.215 33.8076C319.878 32.4482 316.218 31.7757 312.247 31.7757V33.7757ZM322.475 35.6657C325.543 36.8589 328.144 38.614 330.292 40.9314L331.759 39.5719C329.398 37.0241 326.54 35.1005 323.2 33.8017L322.475 35.6657ZM330.287 40.9254C332.055 42.865 333.48 45.0314 334.565 47.4279L336.387 46.6035C335.216 44.016 333.675 41.673 331.765 39.5779L330.287 40.9254ZM334.573 47.4456C335.701 49.8145 336.256 52.19 336.256 54.5807H338.256C338.256 51.8687 337.624 49.2009 336.379 46.5858L334.573 47.4456ZM337.256 53.5807H334.052V55.5807H337.256V53.5807ZM335.051 54.5537C334.988 52.1998 334.383 49.8916 333.255 47.6365L331.466 48.5309C332.475 50.5478 332.997 52.5709 333.052 54.6077L335.051 54.5537ZM333.265 47.6567C332.213 45.428 330.849 43.4137 329.177 41.6173L327.713 42.9801C329.244 44.625 330.492 46.4674 331.456 48.5107L333.265 47.6567ZM329.167 41.6072C324.968 37.2202 319.288 35.0687 312.247 35.0687V37.0687C318.852 37.0687 323.971 39.0705 327.722 42.9901L329.167 41.6072ZM334.586 67.2867H313.938V69.2867H334.586V67.2867ZM312.938 68.2867V94.0077H314.938V68.2867H312.938ZM314.007 95.0053C318.454 94.6965 322.457 93.303 325.993 90.8212L324.844 89.1841C321.617 91.449 317.966 92.7255 313.868 93.0101L314.007 95.0053ZM325.996 90.8193C329.597 88.2737 332.239 84.9148 333.911 80.7645L332.056 80.0169C330.525 83.8173 328.123 86.8663 324.841 89.1861L325.996 90.8193ZM333.918 80.7483C335.036 77.8277 335.586 74.5589 335.586 70.9567H333.586C333.586 74.3558 333.067 77.3764 332.05 80.033L333.918 80.7483ZM335.586 70.9567V68.2867H333.586V70.9567H335.586ZM407.765 96.0547V97.0547H409.327L408.673 95.6358L407.765 96.0547ZM349.381 96.0547L348.473 95.6358L347.818 97.0547H349.381V96.0547ZM378.573 32.7757L379.481 32.3568L378.573 30.3885L377.665 32.3568L378.573 32.7757ZM354.543 92.7617L353.634 92.3432L352.981 93.7617H354.543V92.7617ZM402.603 92.7617V93.7617H404.164L403.511 92.3432L402.603 92.7617ZM378.573 40.6077L379.481 40.1892L378.573 38.218L377.664 40.1892L378.573 40.6077ZM407.765 95.0547H349.381V97.0547H407.765V95.0547ZM350.289 96.4736L379.481 33.1946L377.665 32.3568L348.473 95.6358L350.289 96.4736ZM377.665 33.1946L406.857 96.4736L408.673 95.6358L379.481 32.3568L377.665 33.1946ZM354.543 93.7617H402.603V91.7617H354.543V93.7617ZM403.511 92.3432L379.481 40.1892L377.664 41.0262L401.694 93.1802L403.511 92.3432ZM377.664 40.1892L353.634 92.3432L355.451 93.1802L379.481 41.0262L377.664 40.1892ZM470.085 96.0547V97.0547H472.032L470.898 95.4722L470.085 96.0547ZM422.47 96.0547H421.47V97.0547H422.47V96.0547ZM422.47 34.1107V33.1107H421.47V34.1107H422.47ZM459.227 36.8697L458.736 37.7409L458.742 37.7438L459.227 36.8697ZM466.703 44.1677L465.837 44.6674V44.6674L466.703 44.1677ZM465.101 66.8627L465.887 67.4811L465.892 67.4749L465.101 66.8627ZM454.332 74.0717L454.068 73.1072L452.683 73.4867L453.52 74.6542L454.332 74.0717ZM428.077 37.4037V36.4037H426.132L427.264 37.9857L428.077 37.4037ZM452.285 71.2237L451.472 71.8057L451.852 72.3359L452.49 72.2025L452.285 71.2237ZM462.164 65.2607L461.395 64.6219L462.164 65.2607ZM456.913 39.3617L456.466 40.2561L456.474 40.2597L456.913 39.3617ZM425.763 39.5397L426.577 38.9576L424.763 36.4249V39.5397H425.763ZM425.763 71.4907H424.763V72.4907H425.763V71.4907ZM448.636 71.4907V72.4907H450.582L449.45 70.9086L448.636 71.4907ZM425.763 92.7617H424.763V93.7617H425.763V92.7617ZM463.855 92.7617V93.7617H465.806L464.667 92.1778L463.855 92.7617ZM450.861 74.6947L451.673 74.1108L451.362 73.678L450.829 73.6952L450.861 74.6947ZM448.102 74.7837V75.7837H448.119L448.135 75.7832L448.102 74.7837ZM425.763 74.7837V73.7837H424.763V74.7837H425.763ZM470.085 95.0547H422.47V97.0547H470.085V95.0547ZM423.47 96.0547V34.1107H421.47V96.0547H423.47ZM422.47 35.1107H446.589V33.1107H422.47V35.1107ZM446.589 35.1107C451.641 35.1107 455.669 36.0119 458.736 37.7408L459.718 35.9985C456.259 34.0488 451.861 33.1107 446.589 33.1107V35.1107ZM458.742 37.7438C461.792 39.4385 464.151 41.7438 465.837 44.6674L467.57 43.668C465.696 40.4209 463.071 37.8609 459.713 35.9955L458.742 37.7438ZM465.837 44.6674C467.525 47.5932 468.373 50.8311 468.373 54.4027H470.373C470.373 50.4983 469.442 46.9129 467.57 43.668L465.837 44.6674ZM468.373 54.4027C468.373 58.8078 467.024 62.7461 464.311 66.2505L465.892 67.4749C468.875 63.622 470.373 59.2536 470.373 54.4027H468.373ZM464.316 66.2443C461.596 69.7 458.188 71.9786 454.068 73.1072L454.597 75.0361C459.14 73.7914 462.911 71.264 465.887 67.4811L464.316 66.2443ZM453.52 74.6542L469.273 96.6372L470.898 95.4722L455.145 73.4892L453.52 74.6542ZM427.264 37.9857L451.472 71.8057L453.099 70.6416L428.891 36.8216L427.264 37.9857ZM452.49 72.2025C456.688 71.3253 460.18 69.2169 462.934 65.8994L461.395 64.6219C458.928 67.5938 455.833 69.4607 452.081 70.2448L452.49 72.2025ZM462.934 65.8994C465.694 62.5749 467.08 58.7296 467.08 54.4027H465.08C465.08 58.2638 463.856 61.6571 461.395 64.6219L462.934 65.8994ZM467.08 54.4027C467.08 50.9672 466.235 47.8212 464.535 44.9882L462.82 46.0172C464.324 48.5241 465.08 51.3115 465.08 54.4027H467.08ZM464.535 44.9882C462.83 42.1459 460.427 39.969 457.353 38.4636L456.474 40.2597C459.215 41.6024 461.321 43.5194 462.82 46.0172L464.535 44.9882ZM457.361 38.4673C454.563 37.0687 450.982 36.4037 446.678 36.4037V38.4037C450.8 38.4037 454.042 39.044 456.466 40.2561L457.361 38.4673ZM446.678 36.4037H428.077V38.4037H446.678V36.4037ZM424.763 39.5397V71.4907H426.763V39.5397H424.763ZM425.763 72.4907H448.636V70.4907H425.763V72.4907ZM449.45 70.9086L426.577 38.9576L424.95 40.1218L447.823 72.0728L449.45 70.9086ZM425.763 93.7617H463.855V91.7617H425.763V93.7617ZM464.667 92.1778L451.673 74.1108L450.05 75.2786L463.044 93.3456L464.667 92.1778ZM450.829 73.6952L448.07 73.7842L448.135 75.7832L450.894 75.6942L450.829 73.6952ZM448.102 73.7837H425.763V75.7837H448.102V73.7837ZM424.763 74.7837V92.7617H426.763V74.7837H424.763ZM535.343 34.1107H536.343V33.1107H535.343V34.1107ZM535.343 37.4037V38.4037H536.343V37.4037H535.343ZM511.936 37.4037V36.4037H510.936V37.4037H511.936ZM511.936 96.0547V97.0547H512.936V96.0547H511.936ZM508.732 96.0547H507.732V97.0547H508.732V96.0547ZM508.732 37.4037H509.732V36.4037H508.732V37.4037ZM485.325 37.4037H484.325V38.4037H485.325V37.4037ZM485.325 34.1107V33.1107H484.325V34.1107H485.325ZM534.343 34.1107V37.4037H536.343V34.1107H534.343ZM535.343 36.4037H511.936V38.4037H535.343V36.4037ZM510.936 37.4037V96.0547H512.936V37.4037H510.936ZM511.936 95.0547H508.732V97.0547H511.936V95.0547ZM509.732 96.0547V37.4037H507.732V96.0547H509.732ZM508.732 36.4037H485.325V38.4037H508.732V36.4037ZM486.325 37.4037V34.1107H484.325V37.4037H486.325ZM485.325 35.1107H535.343V33.1107H485.325V35.1107ZM554.855 34.1107V33.1107H553.855V34.1107H554.855ZM598.465 34.1107H599.465V33.1107H598.465V34.1107ZM598.465 37.4037V38.4037H599.465V37.4037H598.465ZM558.148 37.4037V36.4037H557.148V37.4037H558.148ZM558.148 62.5017H557.148V63.5017H558.148V62.5017ZM593.214 62.5017H594.214V61.5017H593.214V62.5017ZM593.214 65.7947V66.7947H594.214V65.7947H593.214ZM558.148 65.7947V64.7947H557.148V65.7947H558.148ZM558.148 92.7617H557.148V93.7617H558.148V92.7617ZM598.465 92.7617H599.465V91.7617H598.465V92.7617ZM598.465 96.0547V97.0547H599.465V96.0547H598.465ZM554.855 96.0547H553.855V97.0547H554.855V96.0547ZM554.855 35.1107H598.465V33.1107H554.855V35.1107ZM597.465 34.1107V37.4037H599.465V34.1107H597.465ZM598.465 36.4037H558.148V38.4037H598.465V36.4037ZM557.148 37.4037V62.5017H559.148V37.4037H557.148ZM558.148 63.5017H593.214V61.5017H558.148V63.5017ZM592.214 62.5017V65.7947H594.214V62.5017H592.214ZM593.214 64.7947H558.148V66.7947H593.214V64.7947ZM557.148 65.7947V92.7617H559.148V65.7947H557.148ZM558.148 93.7617H598.465V91.7617H558.148V93.7617ZM597.465 92.7617V96.0547H599.465V92.7617H597.465ZM598.465 95.0547H554.855V97.0547H598.465V95.0547ZM555.855 96.0547V34.1107H553.855V96.0547H555.855Z" fill="white" mask="url(#path-1-outside-1_58_6)"/>
<path d="M64.741 7.07107L96.2015 38.5316C101.804 44.1342 105.791 48.1262 108.66 51.5056C111.491 54.8404 112.938 57.2482 113.692 59.5671C115.193 64.1865 115.193 69.1625 113.692 73.7818C112.938 76.1007 111.491 78.5085 108.66 81.8433C105.791 85.2227 101.804 89.2147 96.2015 94.8173L66.6745 124.344L35.2139 92.8838C29.6114 87.2812 25.6248 83.2892 22.7559 79.9098C19.9249 76.575 18.4771 74.1672 17.7237 71.8483C16.2228 67.2289 16.2228 62.2529 17.7237 57.6335C18.4771 55.3147 19.9249 52.9069 22.7559 49.5721C25.6248 46.1927 29.6114 42.2007 35.2139 36.5981L64.741 7.07107Z" stroke="white" stroke-width="10"/>
<path d="M65.0032 31.9031L80.0915 46.9914C84.0423 50.9422 86.7936 53.6989 88.7666 56.0166C90.7025 58.2909 91.5983 59.8176 92.0577 61.1947C93.0857 64.276 93.0857 67.6077 92.0577 70.689C91.5983 72.0661 90.7025 73.5928 88.7666 75.8671C86.7937 78.1848 84.0423 80.9415 80.0915 84.8923L65.942 99.0418L50.8537 83.9535C46.9029 80.0027 44.1515 77.246 42.1785 74.9283C40.2426 72.654 39.3468 71.1273 38.8874 69.7502C37.8594 66.6689 37.8594 63.3372 38.8874 60.2559C39.3468 58.8788 40.2426 57.3521 42.1785 55.0779C44.1515 52.7601 46.9029 50.0034 50.8537 46.0526L65.0032 31.9031Z" stroke="white" stroke-width="10"/>
</svg>
